<svg xmlns="http://www.w3.org/2000/svg" xmlns:xlink="http://www.w3.org/1999/xlink" viewBox="0 0 460.54 782.86"><defs><style>.cls-1{fill:none;}.cls-2{clip-path:url(#clip-path);}.cls-3{fill:#fc0a0a;}.cls-4{fill:#fd321b;}.cls-5{fill:#fc9a74;}</style><clipPath id="clip-path" transform="translate(-280.94 -93.62)"><rect class="cls-1" width="1024" height="1024"/></clipPath></defs><title>Asset 1</title><g id="Layer_2" data-name="Layer 2"><g id="Layer_1-2" data-name="Layer 1"><g class="cls-2"><path class="cls-3" d="M625.91,145l-19.19,19.37L597,173.93H448a40.75,40.75,0,0,1,40.75-40.76L597,133h0a40.75,40.75,0,0,1,28.9,12" transform="translate(-280.94 -93.62)"/><polygon class="cls-4" points="126.2 419.77 126.17 428.57 126.17 419.77 126.2 419.77"/><path class="cls-4" d="M372.53,864.18c-11,10.2-25.9,12.3-40,12.3-13.61,0-27.48-1.83-38.47-10.73-5.49-4.45-8.11-8.9-9.16-11.51-3.14-6.55-3.92-14.4-3.92-21.2V729.42c0-3.93-.79-22.51,11.51-33.5,6.81-6,19.63-12,40.3-12,26.69,0,40.82,11,46.32,21.72,2.87,6,4.18,11.77,4.18,24.59V833c0,11.78-1.83,22.5-10.73,31.14M349,732.56c0-1,.79-9.42-2.09-14.92-1.57-3.4-5.5-8.11-14.13-8.11a18.81,18.81,0,0,0-11,3.4c-7.59,5.24-6.54,13.35-6.54,20.94v93.41c0,5.5-.26,12.3,3.14,17,3.92,5.5,12.3,5.5,13.87,5.5A19.89,19.89,0,0,0,343,846.65c6.28-4.45,6-11.78,6-18.58Z" transform="translate(-280.94 -93.62)"/><path class="cls-4" d="M501,786.46c-5.49,6.81-13.34,9.16-30.09,9.16H442.14v76.93H407.86V687.81h68.55a47.81,47.81,0,0,1,9.16.79c11,2.35,16.23,9.42,18.06,13.08,3.92,7.85,3.92,19.63,3.92,27.74v24.33c0,17.27-.78,25.65-6.54,32.71m-26.95-52.59c0-5.24.78-10.73-2.62-14.92-3.92-5-11.25-3.92-12.56-3.92H442.14v54.16h16.48c7.07,0,11-.78,13.08-3.66,2.36-3.14,2.36-9.16,2.36-12.82Z" transform="translate(-280.94 -93.62)"/><polygon class="cls-4" points="246.76 778.93 246.76 594.19 336.25 594.19 336.25 622.19 280.78 622.19 280.78 665.63 333.11 665.63 333.11 693.63 280.78 693.63 280.78 750.41 338.87 750.41 338.87 778.93 246.76 778.93"/><polygon class="cls-4" points="417.63 778.93 384.92 640.51 387.8 778.93 355.88 778.93 355.88 594.19 399.57 594.19 432.81 729.74 429.4 594.19 460.54 594.19 460.54 778.93 417.63 778.93"/><path class="cls-5" d="M638,403.41l-.19,187.69h.09l-.09,0c-4.54,1.89-12.62,3.18-21.91,3.18H409.23A42.36,42.36,0,0,1,366.87,552l-.63-378c0-14.31-.42-15.41.55-21.16A60.13,60.13,0,0,1,407.11,97l.15,113.64.13,92.17,0,11L407.32,348l-.19,165.4,0,8.79v3.57a27.8,27.8,0,0,0,.36,3.33,31,31,0,0,0,1.94,6.69c.06.16.14.29.21.45a3.43,3.43,0,0,0,.19.44,30,30,0,0,0,4.41,6.91c.55.65,1.13,1.28,1.73,1.89v0l.08.08a30.76,30.76,0,0,0,9.92,6.56c.65.26,1.34.53,2,.74a28.23,28.23,0,0,0,5.77,1.26,29.2,29.2,0,0,0,3.65.23H571.31a22.24,22.24,0,0,0,2.71-.47c.16,0,.29-.08.44-.1.74-.19,1.47-.4,2.16-.63.29-.08.57-.19.84-.29s.84-.32,1.23-.5a31.42,31.42,0,0,0,6-3.28,30.55,30.55,0,0,0,11.78-17.3c.13-.52.24-1,.34-1.57a1.89,1.89,0,0,1,.14-.5V173.93l9.76-9.58L625.9,145a40.63,40.63,0,0,1,11.84,26.66V172c0,.6,0,1.18,0,1.78a.53.53,0,0,1,0,.19h0l.29,154.23Z" transform="translate(-280.94 -93.62)"/><polygon class="cls-4" points="126.33 116.97 126.46 209.14 126.2 419.77 126.17 428.57 126.17 3.33 126.33 116.97"/><path class="cls-4" d="M638,591.05l-.21.08v0a.46.46,0,0,0,.21-.05" transform="translate(-280.94 -93.62)"/><path class="cls-3" d="M568.44,363.55h0a8.11,8.11,0,0,1-8.12-8.12V329.29a8.12,8.12,0,1,1,16.24,0v26.14a8.12,8.12,0,0,1-8.12,8.12" transform="translate(-280.94 -93.62)"/><path class="cls-3" d="M597,513.39v16c0,.28-.08.55-.13.84-.11.52-.21,1-.34,1.57a30,30,0,0,1-6.77,12.78,29.2,29.2,0,0,1-11,7.8c-.39.18-.81.34-1.23.5a6.89,6.89,0,0,1-.84.28c-.68.24-1.42.45-2.15.63l-.45.11a22.08,22.08,0,0,1-2.7.47H437.4a27.29,27.29,0,0,1-3.65-.24,28.16,28.16,0,0,1-5.78-1.25c-.68-.21-1.36-.48-2-.74a31,31,0,0,1-9.92-6.56l-.08-.08v0l32-32.07Z" transform="translate(-280.94 -93.62)"/><path class="cls-4" d="M678.6,534.18a59.79,59.79,0,0,1-19.94,44.69,19.83,19.83,0,0,1-1.58,1.37c-.75.62-1.54,1.22-2.37,1.82l0,0-1.48,1-.27.17c-.25.21-.5.41-.77.6a59.55,59.55,0,0,1-5.4,3.31c-1.22.64-2.49,1.26-3.81,1.88l-.67.31c-1.15.5-2.31,1-3.5,1.38l-.71.25-.06,0h0a.34.34,0,0,1-.12,0h-.09L638,403.41l.1-75.25-.29-154.23h0a.53.53,0,0,0,0-.19c0-.6,0-1.18,0-1.78v-.32A40.77,40.77,0,0,0,597,133h0l-108.26.18a40.75,40.75,0,0,0-40.76,40.76V513.4l-32,32.07c-.6-.61-1.18-1.24-1.73-1.89a30,30,0,0,1-4.41-6.91,3.43,3.43,0,0,1-.19-.44c-.07-.16-.15-.29-.21-.45a31,31,0,0,1-1.94-6.69,27.8,27.8,0,0,1-.36-3.33v-3.57l0-8.79.19-165.4.05-34.24,0-11-.13-92.17L407.11,97a69.37,69.37,0,0,1,19.81-3.33H637.74c23.41,0,40.86,17.4,40.86,40.78v372c-.47,4.33,1,23.67,0,27.82" transform="translate(-280.94 -93.62)"/></g></g></g></svg>